<svg width="39" height="39" viewBox="0 0 39 39" fill="none" xmlns="http://www.w3.org/2000/svg">
<path d="M19.5 39C30.2696 39 39 30.2696 39 19.5C39 8.73045 30.2696 0 19.5 0C8.73045 0 0 8.73045 0 19.5C0 30.2696 8.73045 39 19.5 39Z" fill="black"/>
<path d="M19.4998 10.1932C24.6186 10.1932 28.8066 14.3591 28.8066 19.5C28.8066 24.6409 24.6407 28.8068 19.4998 28.8068C14.3589 28.8068 10.193 24.6409 10.193 19.5C10.193 14.3591 14.3811 10.1932 19.4998 10.1932ZM19.4998 9.30682C13.8714 9.30682 9.30664 13.8716 9.30664 19.5C9.30664 25.1284 13.8714 29.6932 19.4998 29.6932C25.1282 29.6932 29.693 25.1284 29.693 19.5C29.693 13.8716 25.1282 9.30682 19.4998 9.30682Z" fill="white"/>
<path d="M15.9546 24.5966L24.5966 19.2784L15.9546 14.4034V24.5966Z" fill="white"/>
</svg>
