<svg width="44" height="44" viewBox="0 0 44 44" fill="none" xmlns="http://www.w3.org/2000/svg">
<path fill-rule="evenodd" clip-rule="evenodd" d="M36.903 6.71291C37.3101 4.3534 37.9074 2.86968 38.5691 2.86684H38.5706C39.8044 2.87109 40.8046 8.01667 40.8046 14.3697C40.8046 20.7226 39.8029 25.8724 38.5677 25.8724C38.0613 25.8724 37.5941 24.998 37.2178 23.5327C36.6233 28.8965 35.3894 32.5839 33.9612 32.5839C32.856 32.5839 31.8642 30.369 31.1983 26.8757C30.7436 33.5192 29.5994 38.2326 28.2619 38.2326C27.4226 38.2326 26.6574 36.3648 26.0909 33.3237C25.4096 39.6015 23.8359 44.0003 22.0004 44.0003C20.1651 44.0003 18.5886 39.6029 17.91 33.3237C17.3477 36.3648 16.5825 38.2326 15.7389 38.2326C14.4016 38.2326 13.26 33.5192 12.8026 26.8757C12.1367 30.369 11.1478 32.5839 10.0398 32.5839C8.61288 32.5839 7.37767 28.898 6.78313 23.5327C6.40963 25.0023 5.93959 25.8724 5.43319 25.8724C4.19795 25.8724 3.19633 20.7226 3.19633 14.3697C3.19633 8.01667 4.19795 2.86684 5.43319 2.86684C6.09627 2.86684 6.68941 4.35482 7.10069 6.71291C7.75957 2.64435 8.82976 0 10.0398 0C11.4765 0 12.7215 3.73979 13.3105 9.17021C13.8868 5.21785 14.7611 2.69821 15.7404 2.69821C17.1126 2.69821 18.2794 7.65388 18.7117 14.5667C19.5244 11.0223 20.7008 8.79892 22.0033 8.79892C23.3057 8.79892 24.4821 11.0238 25.2935 14.5667C25.7271 7.65388 26.8924 2.69821 28.2648 2.69821C29.2426 2.69821 30.1155 5.21785 30.6947 9.17021C31.2822 3.73979 32.5272 0 33.9639 0C35.1698 0 36.2441 2.64577 36.903 6.71291ZM0 13.2383C0 10.3984 0.56796 8.09552 1.26881 8.09552C1.96966 8.09552 2.53762 10.3984 2.53762 13.2383C2.53762 16.0782 1.96966 18.381 1.26881 18.381C0.56796 18.381 0 16.0782 0 13.2383ZM41.4624 13.2383C41.4624 10.3984 42.0303 8.09552 42.7311 8.09552C43.432 8.09552 44 10.3984 44 13.2383C44 16.0782 43.432 18.381 42.7311 18.381C42.0303 18.381 41.4624 16.0782 41.4624 13.2383Z" fill="black"/>
</svg>
