<svg width="40" height="40" viewBox="0 0 40 40" fill="none" xmlns="http://www.w3.org/2000/svg">
<path d="M20 0C8.9375 0 0 8.96062 0 20C0 31.0625 8.96062 40 20 40C31.0625 40 40 31.0394 40 20C40 8.96062 31.0394 0 20 0ZM29.175 28.865C28.8169 29.4625 28.0519 29.6294 27.4544 29.2712C22.7469 26.4037 16.845 25.7587 9.86687 27.3356C9.19812 27.4794 8.52938 27.0731 8.38562 26.4044C8.24187 25.7356 8.64812 25.0669 9.31687 24.9231C16.9394 23.1794 23.4856 23.9194 28.7431 27.1456C28.8847 27.23 29.0083 27.3415 29.1066 27.4738C29.205 27.6061 29.2762 27.7565 29.3161 27.9165C29.3561 28.0764 29.364 28.2426 29.3395 28.4056C29.3149 28.5686 29.2584 28.7252 29.1731 28.8663L29.175 28.865ZM31.6125 23.4169C31.1588 24.1575 30.2025 24.3731 29.4625 23.9419C24.0863 20.6444 15.89 19.6888 9.53438 21.6C8.69812 21.8388 7.83812 21.385 7.59875 20.5725C7.36 19.7362 7.81375 18.8762 8.65 18.6369C15.9137 16.4387 24.9463 17.49 31.135 21.2894C31.8519 21.7194 32.0662 22.675 31.6131 23.4163L31.6125 23.4169ZM31.8275 17.7294C25.3756 13.9062 14.7425 13.5481 8.5775 15.4119C7.5975 15.7225 6.54625 15.1494 6.23563 14.1694C5.925 13.1894 6.49813 12.1381 7.47813 11.8275C14.5513 9.6775 26.3075 10.1069 33.7156 14.5037C34.6 15.0287 34.8862 16.1763 34.3606 17.06C33.8825 17.9681 32.7119 18.255 31.8275 17.7288V17.7294Z" fill="black"/>
</svg>
